<svg xmlns="http://www.w3.org/2000/svg" width="128" height="128" fill="none" viewBox="0 0 128 128"><path fill="#C73B0F" d="M113.844 76.53V39.69a6.002 6.002 0 0 0-2.812-5.086l-43.266-26.65a6.002 6.002 0 0 0-6.289 0l-43.266 26.65a6.002 6.002 0 0 0-2.812 5.086V76.53a6.002 6.002 0 0 0 2.812 5.086l43.266 26.65a6.002 6.002 0 0 0 6.289 0l43.266-26.65a6.002 6.002 0 0 0 2.812-5.086Z" opacity=".1"/><path fill="#C73B0F" d="M64 80.5c-20 0-36.5 4.5-36.5 12s16.5 12 36.5 12 36.5-4.5 36.5-12-16.5-12-36.5-12Z" opacity=".25"/><path fill="#C73B0F" d="M64.07 43.11c-19.16 0-34.69 4.09-34.69 9.14 0 5.04 15.53 9.14 34.69 9.14 19.16 0 34.69-4.1 34.69-9.14 0-5.05-15.53-9.14-34.69-9.14Zm0 14.53c-11.83 0-22.37-1.56-27.91-4.04v26.75c3.55 1.59 13.9 4.3 27.91 4.3 14 0 24.36-2.71 27.91-4.3V53.6c-5.54 2.48-16.08 4.04-27.91 4.04Z"/><path fill="#87635A" d="M49.92 68.73c-6.85-2.09-11.53-4.39-11.53-7.53 0-3.3 5.17-5.96 11.53-7.73v15.26Zm28.16-15.26c6.36 1.77 11.53 4.43 11.53 7.73 0 3.14-4.68 5.44-11.53 7.53V53.47ZM64 57.17c-6.58 2.06-11.08 4.29-11.08 7.33 0 2.92 4.16 5.3 10.36 7.15l.72.2.72-.2C70.92 69.8 75.08 67.42 75.08 64.5c0-3.04-4.5-5.27-11.08-7.33Z"/></svg>
